<?xml version="1.0" standalone="no"?>
<!DOCTYPE svg PUBLIC "-//W3C//DTD SVG 20010904//EN"
 "http://www.w3.org/TR/2001/REC-SVG-20010904/DTD/svg10.dtd">
<svg version="1.0" xmlns="http://www.w3.org/2000/svg"
 width="512.000000pt" height="512.000000pt" viewBox="0 0 512.000000 512.000000"
 preserveAspectRatio="xMidYMid meet">
<metadata>
Created by potrace 1.14, written by Peter Selinger 2001-2017
</metadata>
<g transform="translate(0.000000,512.000000) scale(0.100000,-0.100000)"
fill="#000000" stroke="none">
<path d="M3205 4481 c-3 -6 -3 -15 0 -21 3 -5 1 -10 -5 -10 -7 0 -8 -6 -2 -17
5 -10 12 -41 15 -70 3 -29 8 -57 12 -62 3 -6 8 -25 11 -43 3 -18 8 -44 10 -58
3 -14 5 -33 5 -42 0 -10 5 -20 10 -23 5 -4 7 -11 4 -16 -4 -5 -2 -9 3 -9 20 0
6 -35 -25 -63 -18 -16 -30 -33 -27 -38 3 -5 -3 -9 -12 -9 -10 0 -15 -3 -11 -6
3 -3 -2 -14 -11 -24 -37 -41 -44 -53 -59 -98 -9 -26 -21 -53 -26 -60 -8 -10
-6 -17 7 -24 14 -8 15 -12 6 -18 -17 -10 -22 -80 -7 -80 7 0 6 -4 -3 -10 -12
-8 -12 -10 -1 -10 10 0 11 -3 2 -14 -9 -11 -9 -16 -1 -21 7 -4 10 -21 8 -37
-4 -22 0 -32 16 -41 12 -6 25 -10 31 -8 5 1 2 -6 -6 -16 -21 -23 -31 -63 -15
-60 6 1 11 -6 11 -16 0 -10 6 -22 14 -26 11 -7 11 -9 0 -14 -10 -4 -10 -6 2
-6 10 -1 16 -9 15 -23 -1 -13 4 -29 11 -36 7 -8 11 -18 8 -23 -4 -5 -1 -9 4
-9 6 0 11 -6 11 -14 0 -13 -13 -15 -45 -5 -5 2 -20 -2 -32 -9 -13 -7 -23 -10
-23 -7 0 3 -6 0 -14 -7 -8 -7 -11 -17 -6 -22 5 -5 3 -23 -5 -43 -8 -19 -10
-33 -4 -33 6 0 8 -4 5 -8 -3 -5 -1 -24 4 -43 6 -19 11 -57 13 -84 2 -27 8 -50
15 -53 21 -7 13 -32 -13 -44 -13 -6 -22 -14 -20 -18 3 -4 -27 -40 -65 -80 -39
-39 -67 -76 -64 -82 4 -6 3 -8 -3 -5 -5 3 -22 -8 -39 -26 -16 -17 -22 -27 -14
-22 13 8 13 7 0 -11 -8 -10 -19 -22 -25 -26 -5 -4 -6 -8 -2 -8 5 0 2 -6 -5
-14 -7 -7 -19 -23 -27 -34 -8 -12 -19 -18 -24 -15 -6 3 -7 2 -4 -4 6 -9 -32
-73 -60 -101 -7 -7 -13 -20 -13 -28 0 -8 -4 -13 -9 -9 -8 5 -38 -34 -33 -42 7
-10 0 -23 -8 -18 -5 3 -10 1 -10 -5 0 -6 -6 -8 -12 -4 -10 5 -10 4 -1 -6 10
-11 9 -16 -5 -27 -9 -8 -11 -11 -3 -8 9 5 8 -1 -4 -19 -9 -14 -21 -24 -25 -21
-4 2 -5 -7 -2 -20 2 -15 0 -25 -7 -25 -7 0 -9 -6 -6 -12 4 -7 -1 -4 -10 7 -9
11 -18 30 -22 43 -3 12 -10 22 -17 22 -6 0 -4 5 4 10 13 8 12 10 -2 10 -11 0
-18 8 -18 20 0 11 -7 20 -16 20 -8 0 -13 4 -10 9 3 5 -1 14 -10 21 -8 7 -13
19 -10 27 3 8 1 11 -4 8 -6 -3 -10 0 -10 8 0 7 -9 23 -20 35 -11 12 -20 28
-20 37 0 8 -3 15 -7 15 -5 0 -17 12 -27 27 -11 14 -14 23 -7 18 10 -6 11 -3 2
12 -6 11 -7 23 -3 27 3 4 -1 4 -11 0 -15 -5 -16 -3 -7 22 6 15 9 33 6 39 -2 6
2 12 10 12 8 0 14 -5 15 -11 0 -13 19 30 24 57 3 15 1 16 -10 7 -11 -9 -12 -7
-8 10 3 11 10 23 15 26 5 3 4 12 -3 20 -6 8 -9 17 -6 21 4 3 2 13 -2 22 -5 9
-12 38 -15 66 -4 27 -13 56 -19 64 -10 12 -9 13 3 6 13 -8 13 -7 0 11 -8 10
-19 22 -25 26 -5 4 -6 8 -1 8 5 0 1 10 -10 22 l-19 21 30 -18 30 -17 -25 20
c-14 11 -27 19 -29 16 -2 -2 -11 2 -19 9 -13 9 -14 9 -8 0 5 -9 2 -11 -8 -7
-15 6 -11 34 6 34 5 0 7 4 4 9 -3 5 1 11 9 15 8 3 15 12 15 20 0 8 5 16 11 18
5 2 11 10 13 18 3 16 30 78 54 124 12 23 12 27 1 21 -8 -5 -7 0 4 12 9 11 14
23 10 26 -3 4 -1 7 6 7 8 0 11 8 8 19 -4 18 14 24 29 8 13 -13 65 -7 70 8 4 8
10 12 15 9 5 -3 12 8 15 25 4 17 11 31 17 31 6 0 7 3 4 7 -4 3 -2 12 4 20 6 7
8 13 4 13 -4 0 -2 7 5 15 14 17 22 174 9 190 -4 6 -9 25 -11 43 -2 18 -10 37
-18 42 -8 6 -11 10 -5 10 5 0 -8 17 -30 38 -52 49 -72 75 -68 88 2 6 -7 16
-20 23 -12 6 -28 25 -35 41 -7 16 -22 32 -33 35 -10 4 -19 12 -19 20 0 8 -9
17 -20 20 -11 3 -20 10 -20 15 0 10 -40 25 -55 21 -5 -1 -7 0 -3 4 10 10 -13
31 -42 40 -14 4 -26 7 -27 7 -2 -1 -20 4 -40 11 -21 7 -45 13 -53 12 -8 -1
-21 3 -27 8 -8 6 -13 6 -13 -1 0 -5 -17 -9 -37 -7 -21 1 -47 -2 -58 -8 -11 -6
-22 -11 -25 -12 -16 -1 -100 -40 -100 -47 0 -4 -5 -8 -11 -8 -6 0 -30 -16 -53
-35 -24 -19 -48 -35 -55 -35 -7 0 -9 -5 -6 -10 3 -6 -1 -13 -9 -16 -9 -3 -16
-11 -16 -16 0 -6 -11 -21 -25 -34 -14 -13 -25 -18 -25 -13 0 6 -6 7 -12 2 -7
-4 -19 -8 -26 -9 -19 -3 -72 -51 -98 -89 -24 -36 -46 -100 -36 -109 3 -3 1 -6
-5 -6 -5 0 -10 -6 -11 -12 -8 -73 -9 -118 -1 -118 5 0 9 -7 9 -15 0 -39 28
-101 62 -134 41 -41 88 -76 103 -76 5 0 11 -9 14 -20 2 -11 8 -23 15 -27 8 -6
7 -8 -2 -8 -9 0 -8 -6 4 -24 8 -14 17 -33 19 -43 1 -10 8 -17 15 -15 6 1 8 -2
5 -8 -4 -6 -19 -11 -33 -10 -43 3 -66 0 -59 -7 4 -3 -1 -12 -11 -20 -9 -8 -11
-12 -4 -8 13 7 17 -11 4 -19 -5 -3 -10 -24 -11 -48 -1 -24 -5 -68 -7 -98 -5
-69 -5 -80 0 -105 2 -11 5 -33 5 -49 1 -21 5 -27 16 -22 8 3 14 2 14 -2 -3
-20 3 -23 18 -11 11 10 14 10 9 2 -4 -8 -2 -13 6 -13 7 0 -2 -9 -19 -20 -18
-11 -33 -23 -33 -26 0 -4 8 -1 18 6 9 7 5 1 -10 -13 -15 -14 -24 -27 -22 -30
3 -3 -4 -11 -16 -17 -12 -6 -19 -14 -17 -17 3 -2 -3 -13 -14 -24 -10 -10 -19
-26 -19 -35 0 -8 -4 -13 -9 -10 -5 3 -17 -7 -27 -22 -9 -15 -26 -35 -37 -44
-11 -10 -16 -18 -12 -18 4 0 -2 -9 -15 -20 -13 -11 -20 -20 -16 -20 3 0 -7
-14 -24 -32 -17 -17 -28 -33 -25 -36 3 -3 -4 -12 -15 -19 -11 -8 -18 -18 -15
-23 3 -4 -2 -13 -10 -20 -8 -7 -12 -16 -9 -21 3 -5 0 -8 -7 -7 -7 2 -13 -3
-14 -9 0 -7 -4 -13 -9 -12 -5 0 -15 -13 -22 -30 -7 -17 -18 -31 -24 -31 -6 0
-8 -5 -5 -10 3 -5 2 -10 -3 -10 -10 0 -25 -37 -23 -53 1 -5 -3 -6 -8 -2 -12 7
-33 -29 -23 -40 4 -5 1 -5 -5 -1 -12 6 -18 -5 -14 -26 0 -5 -3 -8 -7 -8 -11 0
-62 -78 -62 -96 0 -8 -5 -14 -11 -14 -5 0 -7 -4 -4 -10 3 -5 2 -10 -3 -10 -10
0 -27 -47 -23 -63 1 -5 -3 -6 -9 -2 -9 5 -14 -8 -7 -19 1 -2 -7 -14 -18 -27
-11 -12 -14 -19 -6 -14 10 6 10 2 -2 -16 -13 -22 -30 -70 -32 -94 0 -5 -4 -16
-9 -24 -7 -10 -5 -12 5 -7 8 4 6 1 -3 -7 -10 -8 -18 -22 -18 -31 0 -9 -7 -32
-15 -52 -8 -19 -10 -32 -4 -28 7 4 7 -1 0 -15 -9 -16 -9 -21 1 -21 10 0 10 -2
0 -9 -8 -4 -12 -17 -11 -27 2 -11 0 -24 -3 -30 -9 -13 1 -54 13 -54 5 0 9 -7
9 -16 0 -8 7 -22 16 -31 8 -9 13 -22 10 -29 -3 -7 4 -16 15 -19 10 -4 19 -13
19 -21 0 -8 5 -14 10 -14 6 0 16 -12 23 -27 12 -28 31 -53 41 -53 13 0 56 -53
50 -62 -4 -7 -2 -8 4 -4 7 4 12 1 12 -9 0 -9 5 -13 10 -10 10 6 13 -3 13 -38
0 -9 2 -17 6 -17 3 0 6 -18 6 -39 1 -22 -2 -38 -7 -35 -4 3 -1 -8 7 -23 13
-25 13 -29 -5 -48 -24 -25 -25 -35 -5 -35 8 0 15 -5 15 -11 0 -5 -4 -8 -8 -5
-5 3 -9 -1 -9 -9 0 -8 5 -11 10 -8 6 4 8 -1 4 -11 -6 -14 -3 -17 10 -12 10 4
14 4 11 0 -13 -12 12 -44 33 -44 13 0 19 -5 17 -13 -3 -6 4 -20 14 -29 12 -12
18 -14 19 -5 0 6 4 2 9 -10 6 -15 15 -21 25 -17 10 4 15 2 13 -7 -2 -8 4 -13
15 -13 9 1 17 -5 17 -13 0 -9 6 -13 14 -10 8 3 22 -5 32 -18 10 -13 21 -22 25
-19 4 2 15 -3 23 -12 9 -8 16 -12 16 -9 0 4 11 0 25 -9 13 -9 31 -16 40 -16 8
0 15 -4 15 -10 0 -5 7 -10 15 -10 8 0 15 -5 15 -11 0 -5 -6 -7 -12 -3 -7 4 -6
0 2 -9 8 -9 29 -18 45 -21 17 -2 30 -5 30 -6 0 -6 61 -7 70 -1 15 12 44 9 39
-4 -5 -13 24 -14 43 -2 6 4 14 1 16 -5 3 -7 6 -8 6 -3 1 6 26 9 61 7 39 -3 60
0 60 7 0 6 5 11 11 11 5 0 7 -5 4 -10 -10 -16 7 -12 28 7 11 10 17 13 14 6 -4
-6 -3 -14 3 -18 5 -3 10 0 10 7 0 10 2 10 9 -1 8 -12 14 -11 38 5 15 10 31 17
36 16 6 -2 11 20 9 39 -1 4 10 10 23 13 14 4 24 10 22 15 -1 5 7 17 18 26 19
16 19 16 -12 12 -18 -2 -30 0 -27 5 3 4 13 8 22 8 9 0 26 8 37 17 16 12 17 14
3 10 -15 -5 -16 -4 -6 13 7 10 16 16 20 14 5 -3 7 6 4 20 -3 15 -1 24 4 21 4
-3 11 2 14 11 3 8 10 12 16 9 6 -3 13 1 16 9 3 9 12 16 18 16 7 0 22 9 34 20
12 12 22 18 22 14 0 -3 7 -1 15 6 12 10 15 10 16 -1 0 -8 4 -5 9 6 7 18 8 19
15 3 4 -10 11 -16 15 -13 5 3 20 -6 34 -20 14 -14 28 -25 32 -25 4 0 13 -8 20
-17 13 -17 13 -17 14 1 0 20 0 20 15 0 8 -10 15 -14 15 -9 0 7 3 7 8 0 11 -15
76 -50 68 -36 -4 6 0 14 8 17 9 3 16 12 16 19 0 8 5 17 12 21 7 4 8 3 4 -4 -4
-7 -2 -12 3 -12 6 0 11 5 11 10 0 6 5 10 11 10 5 0 7 -5 3 -12 -4 -7 -3 -8 5
-4 9 6 9 11 0 22 -7 9 -8 14 -3 13 21 -4 35 2 29 11 -3 6 2 10 13 10 10 0 31
11 46 25 21 19 33 24 54 19 15 -4 29 -10 32 -14 3 -3 16 -14 29 -23 19 -12 28
-14 38 -5 11 9 12 7 7 -8 -4 -10 -4 -16 1 -12 4 4 14 1 21 -7 15 -15 19 -29 6
-21 -5 3 -9 -1 -9 -9 0 -8 4 -12 9 -9 8 5 12 -9 9 -33 -1 -8 5 -10 15 -6 12 4
15 3 10 -6 -5 -8 -3 -11 5 -10 15 3 60 -18 70 -33 3 -5 29 -9 57 -10 29 0 49
-4 46 -9 -3 -5 0 -9 5 -9 6 0 11 5 11 10 0 6 7 10 15 10 8 0 15 -6 15 -12 0
-9 4 -8 10 2 9 13 12 12 25 -4 8 -11 15 -15 15 -9 0 6 9 9 20 6 11 -3 18 -9
15 -13 -3 -5 4 -6 15 -3 11 3 20 1 20 -4 0 -5 11 -15 25 -21 14 -6 25 -18 25
-26 0 -7 7 -16 15 -20 8 -3 15 -12 15 -19 0 -8 12 -19 26 -26 22 -10 25 -9 21
3 -4 10 0 12 15 8 11 -3 24 1 28 8 7 11 12 11 26 -1 15 -12 16 -12 9 0 -6 11
-3 13 13 9 13 -4 23 0 27 10 4 11 9 12 16 5 14 -14 51 -4 42 11 -4 6 2 4 12
-4 10 -8 16 -10 12 -3 -4 6 -3 14 3 18 5 3 10 0 10 -7 0 -10 2 -10 9 1 5 7 14
10 20 7 6 -4 11 -4 10 1 -3 20 2 27 11 13 8 -13 10 -12 10 4 0 15 3 16 14 7
11 -10 17 -8 24 6 6 10 13 16 17 14 11 -6 65 21 65 33 0 6 5 4 10 -4 6 -10 10
-11 10 -3 0 7 6 12 13 10 7 -1 11 6 9 18 -3 19 -3 19 11 1 13 -17 14 -18 20
-2 4 10 4 23 0 29 -4 7 1 6 10 -2 11 -9 17 -10 18 -2 3 26 4 30 13 38 5 4 6 3
3 -3 -10 -18 20 -25 33 -8 7 8 9 14 4 14 -5 0 -3 4 4 9 11 7 10 9 -3 14 -9 4
-14 3 -11 -1 2 -4 -5 -9 -17 -9 -20 -2 -20 -1 -4 8 10 6 14 15 10 22 -4 8 -1
7 9 -1 11 -9 18 -10 23 -2 3 5 2 10 -3 10 -5 0 -8 10 -7 22 1 13 -3 30 -8 38
-9 12 -9 13 3 3 8 -7 20 -13 27 -13 10 0 9 7 -4 28 l-17 27 24 -20 c19 -15 21
-16 11 -2 -7 9 -10 17 -5 18 5 0 0 4 -11 9 -16 7 -16 9 -4 9 16 1 28 19 35 49
1 6 -1 10 -5 7 -4 -2 -8 9 -8 26 0 16 3 25 7 19 5 -7 9 -4 12 8 4 15 2 19 -10
15 -10 -4 -7 4 9 26 20 27 21 34 9 42 -13 9 -13 10 1 6 9 -3 21 -1 27 5 14 14
68 -14 64 -32 -2 -10 3 -9 17 4 11 10 18 24 14 30 -4 6 0 5 9 -2 11 -9 18 -10
23 -2 9 14 50 3 110 -31 32 -18 62 -27 83 -25 30 3 120 -16 142 -29 6 -3 10 0
10 7 0 8 3 9 8 3 11 -16 78 -34 93 -24 7 4 18 5 24 1 18 -12 65 -11 58 2 -4 7
-1 7 7 -1 9 -8 19 -9 32 -2 15 8 18 6 18 -16 0 -34 -31 -114 -69 -175 -17 -28
-28 -56 -25 -62 4 -7 2 -8 -4 -4 -7 4 -12 3 -12 -2 0 -24 -126 -152 -151 -152
-8 0 -19 -4 -25 -9 -15 -15 -127 -59 -164 -64 -19 -3 -73 -9 -120 -12 -47 -4
-96 -8 -110 -11 -13 -2 -52 -4 -87 -5 -42 -1 -60 -5 -56 -13 4 -6 1 -6 -8 1
-12 9 -18 10 -27 1 -9 -9 -18 -9 -37 0 -15 7 -32 9 -38 5 -6 -4 -41 -8 -77 -9
-36 -1 -73 -5 -82 -9 -11 -4 -18 -3 -18 5 0 6 -6 8 -12 4 -10 -5 -10 -3 0 7
11 12 14 12 22 -1 8 -13 10 -12 10 2 0 15 -7 17 -42 13 -87 -11 -145 -15 -205
-15 -35 0 -89 0 -120 0 -32 -1 -78 0 -103 0 -122 3 -377 -6 -435 -15 -22 -4
-52 -6 -67 -6 -16 1 -36 1 -45 1 -10 0 -250 -2 -533 -4 -283 -1 -519 -4 -525
-5 -5 -2 -14 -2 -20 -1 -29 7 -122 6 -137 -2 -9 -4 -19 -4 -22 1 -3 5 -23 7
-43 5 -21 -2 -75 -5 -120 -5 -46 0 -85 -5 -88 -10 -4 -5 -13 -5 -23 -1 -9 5
-30 8 -47 6 -16 -2 -129 -6 -250 -9 -121 -3 -240 -8 -265 -11 -25 -3 -49 -5
-55 -5 -74 5 -104 5 -127 -1 -16 -3 -28 -3 -28 1 0 13 -45 5 -46 -7 -1 -7 -3
-13 -4 -14 -1 -2 -4 -28 -6 -59 l-3 -57 47 3 c26 2 49 4 52 5 9 4 133 0 175
-5 22 -3 54 -4 70 -4 17 1 56 2 88 2 31 1 57 6 58 12 0 5 4 1 8 -9 4 -11 18
-21 31 -23 13 -2 26 -6 29 -9 3 -3 -9 -4 -26 -1 -30 5 -32 3 -23 -14 8 -14 7
-19 -1 -19 -8 0 -9 -4 0 -13 8 -10 7 -17 -1 -25 -7 -7 -8 -12 -2 -12 6 0 11
-6 12 -12 2 -23 7 -43 16 -58 5 -8 6 -12 1 -8 -4 4 -13 1 -19 -7 -9 -13 -46
-16 -211 -17 -110 0 -211 2 -225 6 l-25 7 25 -15 c23 -14 23 -15 5 -16 -18 -1
-18 -2 5 -18 13 -9 36 -28 50 -41 14 -13 39 -34 56 -47 l30 -24 1907 0 c1169
0 1907 3 1907 9 0 11 67 35 93 33 9 0 17 3 17 8 0 4 12 11 28 14 36 9 212 97
212 106 0 5 10 6 21 3 19 -5 20 -3 11 14 -15 28 -39 46 -52 38 -11 -7 -51 -11
-170 -20 -93 -6 -182 -16 -200 -20 -8 -3 -40 -7 -70 -10 -30 -4 -68 -8 -85
-10 -223 -27 -412 -24 -364 5 11 7 10 12 -5 28 -13 15 -14 22 -5 28 7 4 10 3
5 -4 -3 -6 -2 -13 4 -17 6 -3 11 5 11 19 1 14 2 32 3 39 1 6 -2 21 -7 31 -7
15 -6 18 5 14 10 -4 13 4 12 33 -1 33 2 39 20 40 168 7 330 17 334 20 3 2 52
6 98 8 19 0 33 5 30 10 -3 4 6 6 20 3 24 -4 25 -3 15 16 -10 19 -9 21 6 15 10
-3 23 -9 28 -13 12 -9 46 -4 54 7 3 5 13 8 21 8 8 0 21 5 28 12 7 7 20 13 28
13 8 0 14 5 14 11 0 5 4 8 9 5 4 -3 17 2 27 10 10 9 13 13 7 9 -18 -9 -16 0 4
16 11 10 14 10 9 2 -12 -21 12 -15 27 7 8 11 16 17 19 14 5 -5 36 18 73 53 7
7 15 10 18 7 3 -3 8 4 12 15 3 12 11 19 16 16 5 -4 9 1 9 9 0 9 5 16 11 16 5
0 7 5 4 10 -3 6 1 10 9 10 10 0 13 6 9 15 -3 10 0 15 8 13 9 -2 14 5 13 18 0
16 5 20 20 17 17 -4 18 -3 6 6 -13 10 -13 13 2 25 10 7 15 16 11 19 -3 4 -1 7
6 7 9 0 11 8 8 21 -3 11 0 22 7 25 7 3 13 10 14 17 2 22 30 125 37 136 3 6 1
11 -5 11 -6 0 -8 5 -5 11 4 5 9 38 11 72 2 34 7 69 10 79 3 9 1 26 -5 36 -7
13 -6 23 2 32 10 12 9 12 -4 2 -9 -6 -20 -8 -24 -4 -5 4 -6 2 -2 -3 3 -6 -4
-12 -16 -12 -15 -2 -18 0 -9 6 10 6 8 10 -7 14 -14 3 -21 0 -21 -9 0 -8 -7
-14 -16 -14 -13 0 -14 3 -5 13 14 18 4 27 -31 27 -20 0 -28 5 -28 18 0 14 -2
15 -10 2 -7 -11 -10 -11 -10 -2 0 7 -4 10 -10 7 -6 -3 -10 -1 -10 4 0 6 -7 11
-15 11 -7 0 -19 8 -24 18 -6 9 -11 13 -11 8 0 -5 -9 -1 -20 9 -11 10 -17 22
-13 28 3 6 1 7 -5 3 -7 -4 -12 -2 -12 5 0 7 -3 10 -6 6 -6 -6 -59 42 -59 54 0
4 -4 11 -9 16 -6 5 -6 2 -1 -7 8 -13 7 -13 -9 -1 -9 8 -15 20 -12 28 3 8 2 12
-2 9 -9 -5 -42 28 -42 42 0 4 -20 30 -45 57 -25 28 -45 53 -45 58 0 13 -5 21
-32 50 -15 17 -24 36 -20 45 3 10 1 13 -6 8 -7 -4 -12 -1 -12 8 0 9 -4 16 -8
16 -12 0 -83 136 -75 144 3 3 1 6 -5 6 -7 0 -12 11 -12 24 0 14 -5 28 -10 31
-6 4 -8 11 -4 16 3 6 -1 16 -9 22 -9 7 -18 28 -20 47 -2 19 -9 34 -15 33 -12
-3 -27 35 -18 44 3 4 -2 15 -11 26 -10 11 -13 17 -6 13 15 -8 12 31 -4 60 -7
12 -9 24 -6 28 3 3 1 6 -6 6 -7 0 -9 5 -6 10 3 6 0 10 -8 10 -8 0 -17 9 -20
20 -3 13 -1 18 6 13 7 -4 2 6 -11 21 -12 16 -19 33 -15 39 3 6 1 7 -5 3 -7 -4
-12 -2 -12 5 0 7 -8 21 -17 32 -13 15 -14 19 -3 13 9 -5 8 -2 -2 7 -10 8 -15
17 -12 20 3 3 -4 11 -16 17 -12 6 -19 17 -17 23 3 7 -4 27 -15 45 -11 17 -17
32 -13 32 3 0 0 7 -7 15 -7 8 -17 20 -23 27 -5 7 -17 22 -25 33 -9 11 -10 16
-3 11 9 -5 11 -2 7 8 -3 9 -11 16 -18 16 -6 0 -4 5 4 10 13 8 12 10 -2 10 -10
0 -18 3 -19 8 -3 29 -9 47 -19 50 -5 2 -8 8 -4 13 3 5 0 9 -5 9 -6 0 -11 9
-11 20 0 11 -5 20 -11 20 -5 0 -7 5 -4 10 3 6 1 10 -5 10 -6 0 -8 5 -5 10 4 6
1 18 -7 27 -11 14 -11 16 2 8 13 -7 13 -6 2 7 -11 14 -10 17 8 23 12 4 19 9
16 12 -3 4 2 12 12 20 16 14 16 14 -1 9 -13 -4 -16 -2 -10 7 11 17 13 37 3 37
-4 0 -6 43 -4 94 2 56 0 98 -6 101 -6 3 -10 12 -10 18 0 7 4 6 11 -3 9 -12 10
-12 5 3 -3 10 -6 20 -6 23 0 2 -6 1 -12 -1 -20 -7 -46 13 -31 23 7 4 14 20 15
35 1 15 6 27 10 27 4 0 8 7 8 15 0 8 4 15 9 15 6 0 8 9 6 20 -2 11 0 18 6 15
9 -6 12 3 12 38 0 9 3 17 7 17 4 0 7 6 8 13 4 32 20 112 23 112 7 0 4 172 -4
183 -6 7 -6 12 0 12 5 0 10 7 10 15 0 8 -3 15 -6 15 -3 0 -7 12 -8 27 0 15 -6
29 -12 31 -6 2 -8 9 -4 15 3 5 -7 21 -23 35 -16 13 -22 21 -14 16 12 -6 13 -5
3 8 -7 8 -10 18 -6 21 3 4 -1 7 -10 7 -9 0 -17 5 -17 11 0 6 -16 27 -36 47
-26 26 -32 37 -22 43 7 5 9 9 4 9 -4 0 -1 11 8 25 17 25 63 206 73 283 6 51
-10 80 -33 57 -8 -7 -14 -18 -14 -24 0 -6 -4 -11 -10 -11 -5 0 -10 -11 -10
-24 0 -13 -7 -27 -16 -30 -8 -3 -12 -2 -9 3 3 5 1 12 -5 16 -5 3 -10 17 -10
31 0 13 -4 24 -10 24 -5 0 -10 7 -10 15 0 8 -5 15 -11 15 -5 0 -7 5 -3 12 4 7
3 8 -5 4 -6 -4 -23 -31 -38 -59 -25 -49 -29 -56 -32 -74 0 -4 -16 10 -35 31
-19 20 -33 43 -30 50 3 8 -2 21 -11 29 -8 9 -14 21 -13 28 6 25 -33 16 -53
-12 -11 -16 -25 -29 -31 -29 -6 0 -9 3 -5 6 3 3 -3 15 -13 26 -15 16 -22 18
-39 9 -12 -7 -21 -18 -21 -26 0 -8 -4 -15 -10 -15 -5 0 -10 -9 -10 -20 0 -11
-4 -20 -10 -20 -5 0 -10 -3 -9 -7 2 -16 -14 -53 -23 -53 -5 0 -6 -4 -3 -10 3
-5 2 -10 -4 -10 -5 0 -17 18 -27 40 -10 22 -22 40 -27 40 -5 0 -7 7 -3 15 3 8
0 14 -7 12 -7 -1 -11 4 -9 11 1 6 -3 12 -9 12 -5 0 -8 3 -5 8 2 4 -2 15 -9 25
-8 12 -15 14 -20 8z m-38 -997 c-3 -3 -12 -4 -19 -1 -8 3 -5 6 6 6 11 1 17 -2
13 -5z m-787 -248 c0 -2 -7 -7 -16 -10 -8 -3 -12 -2 -9 4 6 10 25 14 25 6z
m1700 -836 c0 -5 -2 -10 -4 -10 -3 0 -8 5 -11 10 -3 6 -1 10 4 10 6 0 11 -4
11 -10z m297 -836 c-4 -4 6 -18 21 -30 15 -13 24 -24 19 -24 -7 0 15 -27 75
-91 14 -16 31 -29 36 -29 6 0 14 -9 17 -20 3 -11 14 -20 22 -20 9 0 14 -3 10
-6 -7 -8 7 -21 55 -54 21 -14 38 -28 38 -32 0 -5 5 -8 11 -8 6 0 23 -8 37 -19
15 -10 42 -22 60 -26 61 -13 32 -24 -50 -20 -99 5 -113 8 -200 30 -38 10 -68
22 -68 27 0 5 -5 6 -10 3 -14 -9 -59 21 -56 37 1 7 5 18 9 25 4 6 3 15 -3 18
-8 5 -7 11 1 22 10 11 10 16 0 22 -8 5 -11 23 -8 50 2 23 0 44 -5 47 -5 3 -7
12 -4 20 3 8 0 14 -5 14 -6 0 -9 9 -6 20 3 11 1 23 -4 26 -9 5 -3 24 8 24 4 0
3 -3 0 -6z m-187 -394 c0 -5 -2 -10 -4 -10 -3 0 -8 5 -11 10 -3 6 -1 10 4 10
6 0 11 -4 11 -10z m-117 -27 c-3 -7 -6 -13 -8 -13 -2 0 -5 6 -8 13 -3 8 1 14
8 14 7 0 11 -6 8 -14z m-2770 -228 c-7 -21 -12 -19 -10 4 0 11 5 18 9 15 4 -3
5 -11 1 -19z m1612 -15 c3 -6 -1 -7 -9 -4 -18 7 -21 14 -7 14 6 0 13 -4 16
-10z m-321 -82 c-3 -4 0 -8 5 -8 6 0 11 5 11 10 0 6 5 10 12 10 8 0 7 -6 -4
-16 -15 -15 -18 -15 -39 -1 -21 16 -21 16 -1 14 11 0 18 -5 16 -9z m-1237 -22
c0 -8 -6 -12 -15 -9 -11 5 -11 7 0 14 7 5 13 9 14 9 0 0 1 -6 1 -14z m2653 10
c0 -3 -4 -8 -10 -11 -5 -3 -10 -1 -10 4 0 6 5 11 10 11 6 0 10 -2 10 -4z
m-2895 -406 c0 -1 9 -3 20 -5 11 -2 25 -11 32 -20 6 -10 16 -15 21 -12 11 7
56 8 199 5 61 -2 109 0 107 4 -3 5 0 8 5 8 6 0 11 -3 11 -8 0 -14 107 -7 126
8 12 10 15 11 10 2 -6 -11 15 -13 108 -11 81 1 121 -2 131 -11 13 -11 14 -10
10 1 -4 11 15 14 102 14 60 0 114 -4 120 -8 9 -6 11 -3 6 10 -6 15 -4 16 9 5
16 -13 44 -12 66 1 7 5 12 4 12 -2 0 -6 11 -10 25 -9 14 1 25 7 25 13 0 5 5 3
10 -5 6 -10 10 -11 10 -2 0 6 5 12 11 12 5 0 7 -4 4 -10 -3 -5 1 -10 10 -10
10 0 14 5 9 13 -6 10 -4 10 7 0 18 -18 42 -16 36 1 -4 11 0 13 15 11 11 -3 23
-7 27 -11 3 -4 -2 -4 -11 -1 -10 4 -18 2 -18 -3 0 -13 30 -13 50 0 8 5 19 5
25 1 5 -4 17 -7 25 -6 8 1 23 -2 32 -7 9 -4 19 -4 22 0 3 5 47 7 98 6 348 -7
564 -1 596 19 6 5 12 5 12 0 0 -4 26 -8 58 -7 42 0 56 4 54 14 -2 10 3 9 21
-3 14 -9 46 -15 78 -15 30 0 56 -1 59 -2 28 -9 40 -6 40 8 0 14 2 15 9 3 7
-11 30 -15 78 -15 l68 -1 -1 -30 c0 -16 6 -34 13 -38 12 -7 12 -12 -3 -28 -12
-13 -13 -19 -4 -19 10 0 10 -3 0 -15 -10 -12 -10 -15 0 -15 10 0 10 -3 0 -15
-10 -11 -9 -18 4 -30 9 -9 16 -18 16 -19 0 -1 -28 -3 -62 -3 -35 0 -144 -4
-243 -8 -99 -5 -234 -9 -300 -11 -66 -1 -132 -4 -148 -7 -15 -2 -29 -1 -32 3
-5 8 -68 5 -84 -4 -6 -4 -11 -3 -11 3 0 6 -6 8 -13 5 -19 -7 -237 -10 -237 -3
0 3 -37 6 -82 6 -62 0 -88 -4 -103 -16 -18 -15 -19 -15 -6 1 17 22 7 25 -53
14 -14 -2 -30 -7 -36 -11 -5 -3 -10 -2 -10 4 0 7 -99 9 -297 5 -164 -2 -334
-5 -378 -5 -44 -1 -154 2 -245 6 -91 4 -193 7 -227 6 -36 0 -63 4 -63 9 0 6
-9 10 -20 10 -11 0 -20 5 -20 12 0 6 3 8 7 5 3 -4 11 3 18 16 9 18 8 25 -4 35
-9 8 -11 11 -4 8 6 -4 14 -2 18 4 3 5 2 10 -3 10 -5 0 -8 15 -7 33 2 17 -1 37
-5 42 -13 16 13 32 49 31 30 -1 57 12 32 15 -6 1 -15 3 -21 4 -5 1 -19 3 -30
4 -11 0 -20 5 -20 10 0 5 8 8 18 6 9 -2 17 -4 17 -5z m2755 -54 c0 -3 -4 -8
-10 -11 -5 -3 -10 -1 -10 4 0 6 5 11 10 11 6 0 10 -2 10 -4z"/>
<path d="M3100 3546 c0 -2 7 -6 15 -10 8 -3 15 -1 15 4 0 6 -7 10 -15 10 -8 0
-15 -2 -15 -4z"/>
<path d="M3885 3109 c-4 -6 -5 -12 -2 -15 2 -3 7 2 10 11 7 17 1 20 -8 4z"/>
<path d="M4110 1176 c0 -2 7 -7 16 -10 8 -3 12 -2 9 4 -6 10 -25 14 -25 6z"/>
<path d="M1170 999 c0 -5 5 -7 10 -4 6 3 10 8 10 11 0 2 -4 4 -10 4 -5 0 -10
-5 -10 -11z"/>
</g>
</svg>
