<svg width="512" height="512" viewBox="0 0 512 512" fill="none" xmlns="http://www.w3.org/2000/svg">
<path d="M210 494.125L304 424.5L378.5 498.5M210 494.125L304 440.375L397.875 498.5M210 494.125C223 397 239.5 373 271 330M271 330L322 395L389.5 440.375M271 330L314.5 401.5L386.5 445.5" stroke="#222222" stroke-width="8" stroke-linecap="round" stroke-linejoin="round"/>
<circle cx="305" cy="295" r="44" fill="white" stroke="#222222" stroke-width="8"/>
<circle cx="279" cy="243" r="6" fill="#E02525" stroke="#ED4F4F" stroke-width="4"/>
<path d="M258.5 284.5C266.5 275 304 261.4 332 257C305 238.5 265 245.5 258.5 284.5Z" fill="#4040BF" stroke="#7575F0" stroke-width="4"/>
<path d="M345.866 267.752C300.875 265.716 267.679 289.001 256.705 300.898L254.235 286.752C275 262.5 316 252.5 337 255L345.866 267.752Z" fill="#E02525" stroke="#ED4F4F" stroke-width="4" stroke-linecap="round" stroke-linejoin="round"/>
<path d="M90 494.125L154 421L198 494.125M90 494.125L141 418L184 494.125M90 494.125C103 397 130 366 157 337.5M157 337.5L203 385L258 344.5M157 337.5L201.5 399L253 354.5" stroke="#222222" stroke-width="8" stroke-linecap="round" stroke-linejoin="round"/>
<circle cx="185" cy="295" r="44" fill="white" stroke="#222222" stroke-width="8"/>
<path d="M124 346.5C150.5 321 127.724 262.5 143 275.834C142.5 270.834 143 267.334 145 265.334C134.227 257.028 121.263 257.668 125 280.5C126.5 289.666 133 315 124 346.5Z" fill="black"/>
<path d="M143 275.834L141.685 277.341L145.493 280.665L144.99 275.635L143 275.834ZM124 346.5L122.077 345.951L120.038 353.089L125.387 347.941L124 346.5ZM125 280.5L123.026 280.823L125 280.5ZM145 265.334L146.414 266.748L148.023 265.139L146.221 263.75L145 265.334ZM144.315 274.327C143.294 273.436 142.311 272.734 141.364 272.319C140.415 271.902 139.256 271.672 138.112 272.152C136.981 272.625 136.352 273.59 135.995 274.458C135.635 275.333 135.44 276.373 135.324 277.452C135.094 279.62 135.142 282.473 135.264 285.686C135.389 288.967 135.592 292.626 135.71 296.663C135.945 304.691 135.824 313.791 134.042 322.421C132.261 331.046 128.849 339.058 122.613 345.059L125.387 347.941C132.401 341.192 136.08 332.329 137.959 323.23C139.837 314.136 139.945 304.663 139.708 296.546C139.59 292.509 139.382 288.702 139.261 285.534C139.138 282.297 139.106 279.717 139.302 277.876C139.4 276.952 139.545 276.344 139.695 275.979C139.847 275.607 139.898 275.74 139.657 275.841C139.405 275.947 139.348 275.802 139.757 275.982C140.168 276.162 140.797 276.565 141.685 277.341L144.315 274.327ZM125.923 347.049C135.069 315.038 128.455 289.232 126.974 280.177L123.026 280.823C124.544 290.1 130.931 314.962 122.077 345.951L125.923 347.049ZM126.974 280.177C126.064 274.622 126.209 270.617 126.963 267.857C127.704 265.145 128.998 263.727 130.424 263.044C131.905 262.333 133.884 262.245 136.263 262.914C138.632 263.58 141.235 264.957 143.779 266.918L146.221 263.75C143.378 261.558 140.322 259.9 137.346 259.063C134.381 258.23 131.333 258.172 128.694 259.437C125.999 260.729 124.08 263.233 123.104 266.803C122.142 270.325 122.067 274.962 123.026 280.823L126.974 280.177ZM143.586 263.92C140.877 266.628 140.507 271.007 141.01 276.033L144.99 275.635C144.493 270.661 145.123 268.04 146.414 266.748L143.586 263.92Z" fill="#333333"/>
<path d="M117.5 348.5C140 320.5 123.667 269.667 133.5 277.5C133 272.5 133.5 273.5 135.5 271.5C124.727 263.194 113.5 274.865 113.5 298C113.5 310.5 121 321 117.5 348.5Z" fill="black"/>
<path d="M133.5 277.5L132.254 279.064C132.883 279.565 133.751 279.641 134.457 279.256C135.163 278.871 135.57 278.101 135.49 277.301L133.5 277.5ZM117.5 348.5L115.516 348.247L114.622 355.275L119.059 349.753L117.5 348.5ZM113.5 298L115.5 298L113.5 298ZM135.5 271.5L136.914 272.914L138.523 271.305L136.721 269.916L135.5 271.5ZM134.746 275.936C134.035 275.369 133.166 274.831 132.185 274.713C130.992 274.57 129.987 275.082 129.331 275.928C128.779 276.641 128.505 277.54 128.34 278.344C128.167 279.192 128.071 280.181 128.018 281.253C127.912 283.393 127.969 286.12 128.05 289.192C128.131 292.292 128.24 295.79 128.25 299.568C128.292 314.781 126.715 333.84 115.941 347.247L119.059 349.753C130.785 335.16 132.292 314.803 132.25 299.557C132.239 295.72 132.129 292.164 132.048 289.087C131.966 285.982 131.916 283.412 132.013 281.45C132.062 280.471 132.144 279.709 132.26 279.144C132.384 278.536 132.507 278.361 132.493 278.378C132.376 278.529 132.05 278.726 131.709 278.685C131.58 278.669 131.735 278.651 132.254 279.064L134.746 275.936ZM119.484 348.753C121.264 334.764 120.248 325.052 118.778 317.254C118.064 313.466 117.195 309.921 116.577 306.896C115.938 303.774 115.5 300.927 115.5 298L111.5 298C111.5 301.323 111.999 304.476 112.658 307.697C113.336 311.016 114.124 314.159 114.847 317.996C116.252 325.448 117.236 334.736 115.516 348.247L119.484 348.753ZM115.5 298C115.5 286.676 118.26 278.533 121.969 274.273C123.799 272.171 125.783 271.09 127.74 270.871C129.687 270.653 131.904 271.253 134.279 273.084L136.721 269.916C133.71 267.594 130.483 266.538 127.295 266.895C124.118 267.251 121.275 268.977 118.952 271.646C114.353 276.929 111.5 286.189 111.5 298L115.5 298ZM134.086 270.086C133.67 270.501 133.363 270.735 132.997 271.039C132.658 271.32 132.132 271.764 131.774 272.481C131.42 273.188 131.33 273.947 131.32 274.71C131.311 275.474 131.385 276.447 131.51 277.699L135.49 277.301C135.365 276.053 135.314 275.276 135.32 274.759C135.326 274.24 135.393 274.187 135.351 274.269C135.306 274.361 135.248 274.368 135.55 274.118C135.825 273.89 136.33 273.499 136.914 272.914L134.086 270.086Z" fill="#333333"/>
<path d="M114 338.834C140.5 315.834 133.167 268.001 143 275.834C142.5 270.834 143 267.334 145 265.334C134.227 257.028 116.264 264.502 120 287.334C121.5 296.5 123 307.334 114 338.834Z" fill="black"/>
<path d="M143 275.834L141.754 277.398L145.462 280.352L144.99 275.635L143 275.834ZM114 338.834L112.077 338.284L110.228 344.756L115.311 340.344L114 338.834ZM120 287.334L121.974 287.011L120 287.334ZM145 265.334L146.414 266.748L148.023 265.139L146.221 263.75L145 265.334ZM144.246 274.27C143.488 273.666 142.617 273.167 141.643 273.02C140.582 272.86 139.605 273.149 138.806 273.757C138.073 274.315 137.552 275.091 137.16 275.862C136.76 276.65 136.425 277.574 136.129 278.57C134.985 282.43 134.104 288.654 132.787 295.388C130.083 309.218 125.383 326.306 112.689 337.323L115.311 340.344C129.117 328.361 134 310.033 136.713 296.155C138.105 289.035 138.89 283.332 139.964 279.707C140.224 278.832 140.478 278.163 140.726 277.674C140.983 277.169 141.17 276.985 141.229 276.94C141.246 276.927 141.223 276.948 141.164 276.964C141.102 276.981 141.055 276.977 141.047 276.976C141.045 276.975 141.103 276.984 141.228 277.047C141.354 277.11 141.529 277.219 141.754 277.398L144.246 274.27ZM115.923 339.383C120.445 323.556 122.357 312.829 122.932 304.853C123.511 296.835 122.734 291.658 121.974 287.011L118.026 287.657C118.766 292.176 119.489 296.999 118.943 304.565C118.393 312.172 116.555 322.612 112.077 338.284L115.923 339.383ZM121.974 287.011C120.195 276.143 123.623 269.44 128.19 266.306C132.826 263.127 139.06 263.279 143.779 266.918L146.221 263.75C140.167 259.082 132.034 258.819 125.928 263.008C119.755 267.243 116.068 275.693 118.026 287.657L121.974 287.011ZM143.586 263.92C140.877 266.628 140.507 271.007 141.01 276.033L144.99 275.635C144.493 270.661 145.123 268.04 146.414 266.748L143.586 263.92Z" fill="#333333"/>
<path d="M188 279.943C208 271.543 225.5 272 231 279.943C229.833 270.129 219.3 249.6 190.5 246C161.7 242.4 143.5 264.5 142.5 277.5C148.667 281 168 288.343 188 279.943Z" fill="black"/>
<path d="M231 279.943L229.356 281.082C229.879 281.837 230.849 282.139 231.708 281.814C232.567 281.489 233.094 280.62 232.986 279.707L231 279.943ZM188 279.943L188.775 281.787L188.775 281.787L188 279.943ZM142.5 277.5L140.506 277.347L140.409 278.613L141.513 279.239L142.5 277.5ZM190.5 246L190.252 247.985L190.5 246ZM232.644 278.805C229.335 274.026 222.744 271.874 214.953 271.815C207.056 271.755 197.409 273.822 187.226 278.1L188.775 281.787C198.591 277.665 207.694 275.76 214.922 275.815C222.256 275.87 227.165 277.917 229.356 281.082L232.644 278.805ZM187.226 278.1C168.022 286.165 149.37 279.099 143.487 275.761L141.513 279.239C147.964 282.901 167.978 290.522 188.775 281.787L187.226 278.1ZM144.494 277.653C144.94 271.851 149.354 263.541 157.334 257.079C165.23 250.686 176.446 246.259 190.252 247.985L190.748 244.015C175.754 242.141 163.47 246.964 154.816 253.971C146.246 260.909 141.06 270.149 140.506 277.347L144.494 277.653ZM190.252 247.985C218.042 251.458 227.944 271.177 229.014 280.18L232.986 279.707C231.723 269.081 220.558 247.742 190.748 244.015L190.252 247.985Z" fill="#333333"/>
<path d="M192.554 294.826C207.147 283.455 198.86 272.018 203.628 270.336C205.948 269.086 206.016 269.516 208.404 268.697C203.942 262.781 192.371 265.874 195.205 273.039C196.342 275.915 195.61 285.512 192.554 294.826Z" fill="black"/>
<path d="M203.628 270.336L204.294 272.222L204.441 272.17L204.577 272.097L203.628 270.336ZM192.554 294.826L190.653 294.202L188.608 300.436L193.783 296.404L192.554 294.826ZM195.205 273.039L193.345 273.775L195.205 273.039ZM208.404 268.697L209.053 270.588L211.66 269.693L210.001 267.492L208.404 268.697ZM202.963 268.45C201.88 268.832 201.096 269.544 200.608 270.481C200.165 271.332 200.013 272.279 199.945 273.11C199.876 273.951 199.88 274.904 199.877 275.818C199.873 276.765 199.862 277.749 199.781 278.793C199.469 282.811 198.112 287.959 191.324 293.248L193.783 296.404C201.588 290.322 203.384 284.067 203.769 279.103C203.862 277.901 203.873 276.791 203.877 275.834C203.88 274.843 203.879 274.083 203.932 273.437C203.985 272.782 204.082 272.47 204.156 272.329C204.184 272.274 204.185 272.261 204.294 272.222L202.963 268.45ZM194.454 295.449C196.027 290.654 197.003 285.789 197.44 281.733C197.659 279.705 197.746 277.85 197.699 276.287C197.654 274.779 197.48 273.355 197.064 272.303L193.345 273.775C193.498 274.161 193.659 275.015 193.701 276.407C193.741 277.743 193.668 279.409 193.463 281.304C193.055 285.094 192.136 289.684 190.653 294.202L194.454 295.449ZM197.064 272.303C196.566 271.044 196.753 270.183 197.138 269.569C197.571 268.879 198.425 268.244 199.643 267.878C202.147 267.127 205.2 267.77 206.807 269.901L210.001 267.492C207.146 263.708 202.182 262.94 198.493 264.047C196.616 264.611 194.829 265.722 193.75 267.443C192.623 269.239 192.426 271.451 193.345 273.775L197.064 272.303ZM207.754 266.805C206.669 267.178 206.223 267.235 205.506 267.414C204.71 267.613 203.957 267.887 202.679 268.576L204.577 272.097C205.619 271.535 206.06 271.399 206.475 271.295C206.969 271.172 207.751 271.036 209.053 270.588L207.754 266.805Z" fill="#333333"/>
<path d="M203.176 292.254C216.914 279.773 205.456 275.649 210.014 273.34C212.17 271.727 215.5 272.5 214.585 271.08C209.263 264.742 198.062 269.22 201.924 277.113C203.474 280.281 204.935 281.43 203.176 292.254Z" fill="black"/>
<path d="M210.014 273.34L210.917 275.124L211.073 275.046L211.212 274.942L210.014 273.34ZM203.176 292.254L201.202 291.934L200.284 297.584L204.521 293.735L203.176 292.254ZM201.924 277.113L203.721 276.233L203.721 276.233L201.924 277.113ZM214.585 271.08L216.265 269.996L216.197 269.891L216.116 269.794L214.585 271.08ZM209.11 271.556C208.298 271.967 207.528 272.578 207.13 273.532C206.74 274.463 206.86 275.359 207.01 275.983C207.153 276.577 207.413 277.243 207.589 277.728C207.787 278.276 207.962 278.805 208.076 279.376C208.293 280.458 208.315 281.801 207.559 283.574C206.781 285.399 205.136 287.771 201.831 290.774L204.521 293.735C208.085 290.497 210.16 287.673 211.239 285.143C212.341 282.559 212.359 280.387 211.998 278.589C211.824 277.721 211.567 276.968 211.351 276.369C211.111 275.706 210.974 275.358 210.899 275.045C210.83 274.763 210.91 274.86 210.82 275.075C210.72 275.313 210.59 275.29 210.917 275.124L209.11 271.556ZM205.15 292.575C206.038 287.113 206.158 283.854 205.764 281.484C205.362 279.072 204.39 277.602 203.721 276.233L200.128 277.992C201.008 279.791 201.542 280.481 201.818 282.141C202.101 283.844 202.073 286.572 201.202 291.934L205.15 292.575ZM203.721 276.233C202.968 274.696 203.033 273.537 203.374 272.712C203.731 271.846 204.503 271.081 205.617 270.59C207.882 269.592 211.029 269.955 213.053 272.366L216.116 269.794C212.818 265.866 207.704 265.3 204.004 266.929C202.135 267.753 200.499 269.191 199.676 271.186C198.836 273.223 198.949 275.583 200.128 277.992L203.721 276.233ZM212.904 272.164C212.901 272.16 212.86 272.097 212.819 271.981C212.778 271.861 212.726 271.655 212.744 271.389C212.786 270.741 213.172 270.336 213.411 270.168C213.586 270.045 213.698 270.032 213.573 270.067C213.475 270.094 213.328 270.126 213.081 270.172C212.233 270.332 210.341 270.597 208.816 271.739L211.212 274.942C211.842 274.47 212.693 274.315 213.821 274.103C214.068 274.057 214.366 273.998 214.645 273.921C214.897 273.851 215.316 273.718 215.709 273.442C216.164 273.123 216.678 272.532 216.735 271.648C216.784 270.902 216.472 270.318 216.265 269.996L212.904 272.164Z" fill="#333333"/>
<path d="M80 504C80 504 266.039 504 416 504C433.673 504 448 489.673 448 472C448 454.327 433.673 440 416 440C398.327 440 384 454.327 384 472" stroke="#5B1600" stroke-width="16" stroke-linecap="round" stroke-linejoin="round"/>
</svg>
