<svg width="512" height="512" viewBox="0 0 512 512" fill="none" xmlns="http://www.w3.org/2000/svg">
<g filter="url(#filter0_d)">
<path d="M278.151 294.024C283.526 348.819 321.962 432.561 344.567 460L309.567 445.093L303.567 479.5L274.567 445.093L244.567 488L219.567 460L182.067 488C205.567 438.545 176.931 359.834 168.067 299.5C159.202 239.166 207.925 232 227.567 232C246.567 232 272.067 232 278.151 294.024Z" fill="#BB6BD9"/>
<ellipse rx="12.8755" ry="17.2785" transform="matrix(-0.983127 -0.182926 -0.164813 0.986325 198.506 293.398)" fill="#333333"/>
<ellipse rx="12.8535" ry="17.3051" transform="matrix(-1 0 0 1 231.853 291.305)" fill="#333333"/>
</g>
<defs>
<filter id="filter0_d" x="163" y="232" width="185.567" height="264" filterUnits="userSpaceOnUse" color-interpolation-filters="sRGB">
<feFlood flood-opacity="0" result="BackgroundImageFix"/>
<feColorMatrix in="SourceAlpha" type="matrix" values="0 0 0 0 0 0 0 0 0 0 0 0 0 0 0 0 0 0 127 0"/>
<feOffset dy="4"/>
<feGaussianBlur stdDeviation="2"/>
<feColorMatrix type="matrix" values="0 0 0 0 0 0 0 0 0 0 0 0 0 0 0 0 0 0 0.25 0"/>
<feBlend mode="normal" in2="BackgroundImageFix" result="effect1_dropShadow"/>
<feBlend mode="normal" in="SourceGraphic" in2="effect1_dropShadow" result="shape"/>
</filter>
</defs>
</svg>
