<svg width="512" height="512" viewBox="0 0 512 512" fill="none" xmlns="http://www.w3.org/2000/svg">
<g clip-path="url(#clip0)">
<path d="M302.5 344L249.5 416.5L254.5 504M302.5 344L295 433.5L354 504M302.5 344C283 270.5 267.5 237.5 237.5 205M237.5 205L166 225.5L100 190M237.5 205L189.5 262L120.5 284" stroke="#222222" stroke-width="16" stroke-linecap="round" stroke-linejoin="round"/>
<circle r="40" transform="matrix(-0.951056 -0.309017 -0.309017 0.951056 216.183 159.807)" fill="white" stroke="#222222" stroke-width="16"/>
<path d="M258.283 227.636C240.96 195.195 280.699 146.596 262.05 154.557C264.071 149.957 264.677 146.473 263.393 143.953C276.205 139.382 288.336 143.998 277.727 164.557C273.468 172.811 259.458 194.897 258.283 227.636Z" fill="black"/>
<path d="M262.05 154.557L262.835 156.397L258.186 158.381L260.219 153.753L262.05 154.557ZM258.283 227.636L260.282 227.708L260.016 235.127L256.519 228.578L258.283 227.636ZM277.727 164.557L279.505 165.474L277.727 164.557ZM263.393 143.953L261.611 144.861L260.578 142.834L262.721 142.069L263.393 143.953ZM261.265 152.718C262.512 152.186 263.664 151.822 264.693 151.72C265.724 151.617 266.897 151.756 267.837 152.566C268.766 153.366 269.066 154.478 269.137 155.414C269.209 156.357 269.074 157.406 268.85 158.468C268.4 160.601 267.472 163.3 266.363 166.318C265.23 169.4 263.906 172.817 262.547 176.619C259.843 184.183 257.146 192.874 256.174 201.633C255.202 210.386 255.971 219.06 260.047 226.694L256.519 228.578C251.934 219.992 251.173 210.426 252.198 201.191C253.222 191.962 256.046 182.919 258.78 175.273C260.14 171.47 261.515 167.914 262.609 164.938C263.726 161.897 264.554 159.453 264.936 157.642C265.128 156.733 265.179 156.11 265.149 155.717C265.118 155.316 265.03 155.427 265.227 155.597C265.435 155.776 265.533 155.656 265.089 155.7C264.643 155.744 263.919 155.934 262.835 156.397L261.265 152.718ZM256.284 227.564C257.478 194.293 271.743 171.794 275.95 163.64L279.505 165.474C275.194 173.828 261.437 195.5 260.282 227.708L256.284 227.564ZM275.95 163.64C278.531 158.638 279.631 154.785 279.767 151.927C279.9 149.118 279.108 147.37 277.963 146.279C276.774 145.146 274.919 144.45 272.449 144.351C269.991 144.253 267.09 144.758 264.065 145.837L262.721 142.069C266.102 140.863 269.521 140.231 272.61 140.355C275.687 140.478 278.604 141.365 280.723 143.383C282.886 145.445 283.938 148.42 283.763 152.116C283.59 155.763 282.228 160.197 279.505 165.474L275.95 163.64ZM265.175 143.045C266.914 146.458 265.912 150.737 263.881 155.362L260.219 153.753C262.229 149.176 262.44 146.488 261.611 144.861L265.175 143.045Z" fill="#333333"/>
<path d="M263.847 231.547C251.101 197.964 282.343 154.666 270.57 159.077C272.591 154.477 271.806 155.273 270.522 152.753C283.334 148.182 290.406 162.751 283.257 184.754C279.394 196.643 269.016 204.311 263.847 231.547Z" fill="black"/>
<path d="M270.57 159.077L271.272 160.95C270.519 161.232 269.67 161.036 269.117 160.452C268.565 159.868 268.416 159.01 268.739 158.273L270.57 159.077ZM263.847 231.547L265.812 231.92L264.491 238.88L261.977 232.256L263.847 231.547ZM283.257 184.754L281.354 184.136L283.257 184.754ZM270.522 152.753L268.74 153.661L267.707 151.634L269.85 150.869L270.522 152.753ZM269.868 157.205C270.719 156.886 271.712 156.642 272.682 156.833C273.861 157.066 274.659 157.864 275.021 158.871C275.326 159.719 275.309 160.659 275.216 161.475C275.119 162.335 274.905 163.305 274.624 164.34C274.064 166.409 273.167 168.985 272.141 171.882C271.105 174.805 269.921 178.098 268.744 181.688C264.003 196.143 259.613 214.756 265.717 230.837L261.977 232.256C255.334 214.755 260.192 194.928 264.943 180.441C266.139 176.795 267.343 173.447 268.37 170.546C269.408 167.619 270.25 165.189 270.764 163.294C271.02 162.347 271.177 161.597 271.242 161.024C271.312 160.407 271.249 160.203 271.256 160.224C271.321 160.404 271.571 160.691 271.908 160.758C272.035 160.783 271.893 160.718 271.272 160.95L269.868 157.205ZM261.882 231.174C264.511 217.32 268.479 208.397 272.287 201.436C274.137 198.053 276.059 194.95 277.581 192.265C279.153 189.493 280.45 186.92 281.354 184.136L285.159 185.372C284.132 188.533 282.683 191.377 281.061 194.238C279.39 197.184 277.67 199.93 275.796 203.355C272.157 210.008 268.352 218.538 265.812 231.92L261.882 231.174ZM281.354 184.136C284.854 173.366 284.745 164.769 282.534 159.571C281.444 157.007 279.891 155.366 278.097 154.552C276.313 153.743 274.019 153.629 271.194 154.637L269.85 150.869C273.432 149.592 276.826 149.584 279.748 150.909C282.66 152.23 284.83 154.749 286.215 158.006C288.956 164.451 288.808 174.14 285.159 185.372L281.354 184.136ZM272.304 151.845C272.571 152.369 272.791 152.686 273.046 153.088C273.281 153.46 273.644 154.045 273.763 154.837C273.881 155.619 273.732 156.369 273.505 157.098C273.278 157.827 272.907 158.73 272.401 159.882L268.739 158.273C269.244 157.125 269.532 156.402 269.686 155.908C269.84 155.413 269.794 155.342 269.808 155.433C269.823 155.534 269.875 155.558 269.666 155.227C269.475 154.925 269.115 154.397 268.74 153.661L272.304 151.845Z" fill="#333333"/>
<path d="M270.163 223.435C252.067 193.372 273.823 150.146 262.05 154.557C264.071 149.957 264.677 146.473 263.393 143.953C276.205 139.382 290.98 152.042 280.371 172.602C276.112 180.856 271.337 190.696 270.163 223.435Z" fill="black"/>
<path d="M262.05 154.557L262.752 156.43L258.313 158.094L260.219 153.753L262.05 154.557ZM270.163 223.435L272.161 223.507L271.92 230.233L268.449 224.467L270.163 223.435ZM280.371 172.602L278.593 171.685L280.371 172.602ZM263.393 143.953L261.611 144.861L260.578 142.834L262.721 142.069L263.393 143.953ZM261.348 152.684C262.256 152.344 263.238 152.139 264.21 152.301C265.269 152.476 266.109 153.053 266.68 153.878C267.205 154.636 267.461 155.535 267.595 156.389C267.733 157.262 267.766 158.244 267.739 159.283C267.634 163.307 266.55 169.499 265.721 176.31C264.018 190.299 263.208 208.003 271.876 222.404L268.449 224.467C259.022 208.804 260.042 189.864 261.75 175.827C262.626 168.625 263.642 162.958 263.74 159.179C263.764 158.267 263.729 157.551 263.644 157.01C263.556 156.45 263.435 156.217 263.393 156.156C263.38 156.139 263.396 156.166 263.447 156.199C263.501 156.234 263.546 156.245 263.555 156.247C263.556 156.247 263.499 156.237 263.361 156.258C263.221 156.28 263.022 156.329 262.752 156.43L261.348 152.684ZM268.164 223.364C268.754 206.913 270.251 196.121 272.168 188.357C274.096 180.552 276.434 175.869 278.593 171.685L282.148 173.519C280.048 177.588 277.87 181.952 276.052 189.316C274.223 196.721 272.746 207.218 272.161 223.507L268.164 223.364ZM278.593 171.685C283.643 161.899 282.455 154.464 279.079 150.072C275.653 145.616 269.677 143.835 264.065 145.837L262.721 142.069C269.921 139.501 277.738 141.764 282.25 147.635C286.813 153.57 287.707 162.746 282.148 173.519L278.593 171.685ZM265.175 143.045C266.914 146.458 265.912 150.737 263.881 155.362L260.219 153.753C262.229 149.176 262.44 146.488 261.611 144.861L265.175 143.045Z" fill="#333333"/>
<path d="M217.983 144.56C201.557 130.391 184.773 125.417 177.087 131.272C181.23 122.299 197.591 106.029 226.094 111.505C254.597 116.981 265.077 143.624 262.011 156.296C255.064 157.719 234.408 158.729 217.983 144.56Z" fill="black"/>
<path d="M177.087 131.272L178.299 132.863C177.568 133.42 176.552 133.407 175.836 132.832C175.119 132.257 174.886 131.268 175.271 130.434L177.087 131.272ZM217.983 144.56L216.676 146.074L217.983 144.56ZM262.011 156.296L263.955 156.767L263.656 158.001L262.412 158.256L262.011 156.296ZM226.094 111.505L225.717 113.469L226.094 111.505ZM175.875 129.681C180.499 126.159 187.433 126.148 194.861 128.5C202.39 130.884 210.925 135.831 219.289 143.046L216.676 146.074C208.615 139.12 200.545 134.495 193.654 132.314C186.662 130.1 181.361 130.53 178.299 132.863L175.875 129.681ZM219.289 143.046C235.06 156.65 254.983 155.694 261.609 154.337L262.412 158.256C255.146 159.744 233.756 160.808 216.676 146.074L219.289 143.046ZM260.067 155.826C261.435 150.17 259.806 140.902 254.214 132.291C248.679 123.771 239.381 116.094 225.717 113.469L226.471 109.541C241.311 112.392 251.503 120.775 257.568 130.113C263.574 139.36 265.652 149.75 263.955 156.767L260.067 155.826ZM225.717 113.469C198.213 108.185 182.703 123.879 178.903 132.11L175.271 130.434C179.756 120.718 196.969 103.873 226.471 109.541L225.717 113.469Z" fill="#333333"/>
<path d="M211.449 159.067C199.294 145.121 209.611 135.476 205.251 132.914C203.213 131.244 203.064 131.654 200.876 130.394C206.384 125.438 217.153 130.682 213.004 137.175C211.339 139.781 210.226 149.341 211.449 159.067Z" fill="black"/>
<path d="M205.251 132.914L204.238 134.639L204.104 134.56L203.983 134.461L205.251 132.914ZM211.449 159.067L213.434 158.818L214.252 165.327L209.942 160.381L211.449 159.067ZM213.004 137.175L214.69 138.252L213.004 137.175ZM200.876 130.394L199.878 132.127L197.489 130.751L199.538 128.907L200.876 130.394ZM206.264 131.19C207.254 131.771 207.888 132.62 208.188 133.633C208.461 134.553 208.429 135.511 208.337 136.34C208.244 137.178 208.059 138.114 207.888 139.011C207.711 139.942 207.533 140.91 207.414 141.95C206.953 145.953 207.303 151.266 212.957 157.753L209.942 160.381C203.44 152.922 202.871 146.439 203.44 141.493C203.578 140.296 203.78 139.204 203.958 138.264C204.144 137.29 204.29 136.544 204.362 135.9C204.434 135.247 204.398 134.922 204.353 134.77C204.335 134.711 204.338 134.697 204.238 134.639L206.264 131.19ZM209.465 159.317C208.835 154.309 208.806 149.347 209.151 145.282C209.323 143.25 209.591 141.412 209.936 139.887C210.268 138.415 210.71 137.051 211.319 136.098L214.69 138.252C214.466 138.602 214.144 139.41 213.838 140.768C213.543 142.072 213.297 143.721 213.136 145.62C212.814 149.418 212.84 154.099 213.434 158.818L209.465 159.317ZM211.319 136.098C212.048 134.957 212.029 134.076 211.768 133.399C211.475 132.64 210.758 131.853 209.632 131.262C207.317 130.046 204.198 130.095 202.214 131.881L199.538 128.907C203.062 125.736 208.082 125.93 211.492 127.72C213.227 128.632 214.769 130.064 215.5 131.959C216.263 133.937 216.035 136.146 214.69 138.252L211.319 136.098ZM201.874 128.661C202.869 129.233 203.295 129.375 203.965 129.688C204.709 130.035 205.396 130.447 206.518 131.367L203.983 134.461C203.068 133.711 202.661 133.493 202.274 133.313C201.813 133.097 201.071 132.814 199.878 132.127L201.874 128.661Z" fill="#333333"/>
<path d="M201.55 151.352C190.317 136.576 202.334 134.609 198.274 131.508C196.448 129.529 196.232 129.981 194.191 128.453C200.579 123.19 210.776 129.635 205.54 136.692C203.439 139.524 201.793 140.389 201.55 151.352Z" fill="black"/>
<path d="M198.274 131.508L197.06 133.098L196.922 132.992L196.804 132.865L198.274 131.508ZM201.55 151.352L203.549 151.396L203.422 157.119L199.958 152.562L201.55 151.352ZM205.54 136.692L203.934 135.5L205.54 136.692ZM194.191 128.453L192.993 130.054L190.954 128.529L192.919 126.909L194.191 128.453ZM199.487 129.919C200.211 130.471 200.856 131.212 201.074 132.223C201.288 133.209 201.007 134.068 200.745 134.654C200.496 135.212 200.119 135.819 199.859 136.264C199.564 136.767 199.295 137.255 199.079 137.796C198.668 138.82 198.402 140.137 198.822 142.018C199.255 143.955 200.44 146.587 203.142 150.141L199.958 152.562C197.044 148.729 195.518 145.574 194.918 142.89C194.305 140.149 194.684 138.01 195.366 136.308C195.695 135.485 196.085 134.793 196.407 134.242C196.763 133.635 196.962 133.317 197.093 133.024C197.211 132.758 197.115 132.84 197.165 133.067C197.219 133.319 197.352 133.321 197.06 133.098L199.487 129.919ZM199.55 151.307C199.673 145.775 200.148 142.549 200.968 140.29C201.803 137.991 203.026 136.724 203.934 135.5L207.147 137.883C205.953 139.492 205.303 140.073 204.728 141.655C204.139 143.278 203.67 145.965 203.549 151.396L199.55 151.307ZM203.934 135.5C204.954 134.125 205.101 132.973 204.917 132.1C204.724 131.184 204.104 130.291 203.098 129.605C201.052 128.211 197.892 127.995 195.463 129.997L192.919 126.909C196.878 123.648 202.01 124.023 205.351 126.3C207.038 127.45 208.385 129.162 208.831 131.274C209.286 133.43 208.744 135.73 207.147 137.883L203.934 135.5ZM195.389 126.852C196.306 127.537 196.701 127.708 197.349 128.101C198.078 128.542 198.731 129.054 199.743 130.152L196.804 132.865C195.991 131.983 195.622 131.731 195.277 131.522C194.851 131.264 194.118 130.896 192.993 130.054L195.389 126.852Z" fill="#333333"/>
</g>
<defs>
<clipPath id="clip0">
<rect width="512" height="512" fill="white"/>
</clipPath>
</defs>
</svg>
