<svg width="512" height="512" viewBox="0 0 512 512" fill="none" xmlns="http://www.w3.org/2000/svg">
<path d="M80 504C80 504 266.039 504 416 504C433.673 504 448 489.673 448 472C448 454.327 433.673 440 416 440C398.327 440 384 454.327 384 472" stroke="#5B1600" stroke-width="16" stroke-linecap="round" stroke-linejoin="round"/>
<g filter="url(#filter0_d)">
<path d="M277 327.431C264.227 377.825 294 388 256 501.308L284.829 474.541L310.822 503.656L328.5 481L354 501.308L360.5 474.541L380.5 470C360.5 427.5 377.23 384.381 385.435 327.431C393.641 270.481 353.356 269.799 332.089 273.086C310.822 276.373 289.773 277.037 277 327.431Z" fill="#BB6BD9"/>
<ellipse cx="335.007" cy="328.72" rx="11.8974" ry="16.3346" fill="#333333"/>
<ellipse rx="11.9257" ry="16.301" transform="matrix(0.98247 -0.186419 0.161701 0.98684 363.353 318.31)" fill="#333333"/>
</g>
<defs>
<filter id="filter0_d" x="252" y="272" width="138.522" height="239.656" filterUnits="userSpaceOnUse" color-interpolation-filters="sRGB">
<feFlood flood-opacity="0" result="BackgroundImageFix"/>
<feColorMatrix in="SourceAlpha" type="matrix" values="0 0 0 0 0 0 0 0 0 0 0 0 0 0 0 0 0 0 127 0"/>
<feOffset dy="4"/>
<feGaussianBlur stdDeviation="2"/>
<feColorMatrix type="matrix" values="0 0 0 0 0 0 0 0 0 0 0 0 0 0 0 0 0 0 0.25 0"/>
<feBlend mode="normal" in2="BackgroundImageFix" result="effect1_dropShadow"/>
<feBlend mode="normal" in="SourceGraphic" in2="effect1_dropShadow" result="shape"/>
</filter>
</defs>
</svg>
