<svg width="512" height="512" viewBox="0 0 512 512" fill="none" xmlns="http://www.w3.org/2000/svg">
<path d="M216 496.054L305 441.929L370 496.054M216 496.054L287 440.929L356 496.054M216 496.054C249.5 383.429 276.5 371.5 303.5 343M303.5 343L338.5 399L389 440.929M303.5 343L330.5 406L384 444" stroke="#222222" stroke-width="8" stroke-linecap="round" stroke-linejoin="round"/>
<circle cx="333.569" cy="303.572" r="44" transform="rotate(-18 333.569 303.572)" fill="white" stroke="#222222" stroke-width="8"/>
<path d="M291.469 371.402C308.792 338.961 269.054 290.362 287.702 298.323C285.682 293.722 285.076 290.239 286.36 287.719C273.548 283.148 261.416 287.763 272.025 308.323C276.284 316.577 290.295 338.662 291.469 371.402Z" fill="black"/>
<path d="M287.702 298.323L286.917 300.162L291.566 302.147L289.534 297.519L287.702 298.323ZM291.469 371.402L289.471 371.473L289.737 378.892L293.234 372.344L291.469 371.402ZM272.025 308.323L270.248 309.24L272.025 308.323ZM286.36 287.719L288.142 288.627L289.175 286.599L287.032 285.835L286.36 287.719ZM288.488 296.483C287.241 295.951 286.089 295.588 285.06 295.485C284.029 295.382 282.855 295.522 281.915 296.331C280.986 297.131 280.686 298.243 280.615 299.179C280.544 300.122 280.678 301.171 280.903 302.234C281.353 304.366 282.28 307.066 283.389 310.083C284.522 313.165 285.846 316.583 287.206 320.385C289.91 327.948 292.607 336.64 293.579 345.398C294.55 354.151 293.782 362.825 289.705 370.459L293.234 372.344C297.819 363.757 298.579 354.191 297.554 344.957C296.53 335.728 293.706 326.685 290.972 319.038C289.612 315.236 288.238 311.679 287.144 308.703C286.026 305.663 285.199 303.219 284.817 301.408C284.625 300.499 284.574 299.876 284.604 299.482C284.634 299.082 284.723 299.192 284.526 299.362C284.318 299.541 284.22 299.421 284.664 299.465C285.11 299.51 285.833 299.699 286.917 300.162L288.488 296.483ZM293.468 371.33C292.275 338.059 278.01 315.56 273.802 307.406L270.248 309.24C274.558 317.594 288.315 339.266 289.471 371.473L293.468 371.33ZM273.802 307.406C271.221 302.403 270.121 298.55 269.985 295.692C269.852 292.883 270.645 291.136 271.789 290.045C272.979 288.911 274.834 288.216 277.303 288.117C279.761 288.018 282.663 288.523 285.688 289.602L287.032 285.835C283.651 284.629 280.231 283.996 277.143 284.12C274.066 284.244 271.148 285.13 269.03 287.149C266.866 289.211 265.814 292.186 265.99 295.882C266.163 299.529 267.525 303.963 270.248 309.24L273.802 307.406ZM284.578 286.811C282.839 290.224 283.84 294.502 285.871 299.127L289.534 297.519C287.523 292.942 287.313 290.254 288.142 288.627L284.578 286.811Z" fill="#333333"/>
<path d="M285.906 375.312C298.652 341.73 267.41 298.432 279.182 302.843C277.162 298.242 277.946 299.039 279.23 296.519C266.418 291.948 259.347 306.517 266.496 328.52C270.359 340.408 280.736 348.077 285.906 375.312Z" fill="black"/>
<path d="M279.182 302.843L278.48 304.716C279.234 304.998 280.082 304.802 280.635 304.217C281.188 303.633 281.337 302.775 281.013 302.039L279.182 302.843ZM285.906 375.312L283.941 375.685L285.262 382.645L287.775 376.022L285.906 375.312ZM266.496 328.52L268.398 327.902L266.496 328.52ZM279.23 296.519L281.012 297.427L282.045 295.399L279.902 294.635L279.23 296.519ZM279.884 300.97C279.033 300.651 278.04 300.408 277.071 300.599C275.892 300.831 275.094 301.629 274.732 302.637C274.427 303.485 274.444 304.424 274.536 305.24C274.634 306.1 274.848 307.071 275.128 308.106C275.689 310.174 276.585 312.751 277.612 315.647C278.647 318.57 279.831 321.864 281.009 325.453C285.749 339.909 290.139 358.522 284.036 374.602L287.775 376.022C294.418 358.52 289.56 338.693 284.809 324.207C283.614 320.561 282.41 317.212 281.382 314.311C280.345 311.384 279.503 308.955 278.989 307.059C278.732 306.113 278.575 305.362 278.511 304.79C278.441 304.173 278.504 303.968 278.496 303.989C278.431 304.169 278.182 304.457 277.845 304.523C277.717 304.548 277.86 304.483 278.48 304.716L279.884 300.97ZM287.87 374.939C285.241 361.086 281.273 352.163 277.465 345.201C275.615 341.818 273.694 338.716 272.171 336.03C270.599 333.258 269.302 330.686 268.398 327.902L264.594 329.138C265.621 332.298 267.069 335.142 268.692 338.003C270.362 340.95 272.083 343.696 273.956 347.12C277.595 353.774 281.401 362.303 283.941 375.685L287.87 374.939ZM268.398 327.902C264.899 317.132 265.008 308.534 267.218 303.337C268.309 300.772 269.862 299.131 271.656 298.318C273.44 297.509 275.734 297.395 278.558 298.402L279.902 294.635C276.321 293.357 272.926 293.35 270.004 294.675C267.092 295.995 264.922 298.515 263.537 301.771C260.796 308.216 260.944 317.905 264.594 329.138L268.398 327.902ZM277.448 295.611C277.181 296.134 276.961 296.452 276.707 296.853C276.472 297.225 276.109 297.811 275.989 298.603C275.871 299.385 276.02 300.135 276.247 300.863C276.474 301.592 276.845 302.495 277.351 303.647L281.013 302.039C280.509 300.89 280.22 300.168 280.066 299.673C279.912 299.178 279.958 299.107 279.945 299.198C279.929 299.299 279.877 299.324 280.087 298.993C280.278 298.691 280.637 298.163 281.012 297.427L277.448 295.611Z" fill="#333333"/>
<path d="M279.59 367.201C297.685 337.137 275.93 293.911 287.702 298.323C285.682 293.722 285.076 290.239 286.36 287.719C273.548 283.148 258.773 295.808 269.382 316.367C273.641 324.621 278.415 334.461 279.59 367.201Z" fill="black"/>
<path d="M287.702 298.323L287.001 300.196L291.44 301.859L289.533 297.519L287.702 298.323ZM279.59 367.201L277.591 367.272L277.832 373.999L281.303 368.232L279.59 367.201ZM269.382 316.367L271.159 315.45L269.382 316.367ZM286.36 287.719L288.142 288.627L289.175 286.599L287.032 285.835L286.36 287.719ZM288.404 296.45C287.497 296.11 286.514 295.905 285.542 296.066C284.484 296.242 283.644 296.818 283.072 297.644C282.547 298.401 282.291 299.3 282.157 300.154C282.02 301.027 281.987 302.009 282.013 303.048C282.118 307.073 283.203 313.264 284.032 320.075C285.734 334.064 286.544 351.769 277.876 366.169L281.303 368.232C290.731 352.569 289.711 333.629 288.002 319.592C287.126 312.391 286.11 306.724 286.012 302.944C285.988 302.032 286.023 301.317 286.108 300.776C286.196 300.215 286.317 299.983 286.36 299.922C286.372 299.904 286.357 299.931 286.305 299.965C286.251 300 286.206 300.011 286.197 300.012C286.196 300.012 286.254 300.003 286.392 300.024C286.531 300.045 286.731 300.095 287.001 300.196L288.404 296.45ZM281.588 367.129C280.998 350.679 279.501 339.886 277.584 332.122C275.657 324.318 273.318 319.635 271.159 315.45L267.604 317.284C269.704 321.354 271.882 325.718 273.701 333.081C275.529 340.486 277.007 350.983 277.591 367.272L281.588 367.129ZM271.159 315.45C266.109 305.664 267.298 298.23 270.673 293.838C274.099 289.381 280.076 287.6 285.688 289.602L287.032 285.835C279.832 283.266 272.015 285.529 267.502 291.4C262.94 297.335 262.045 306.511 267.604 317.284L271.159 315.45ZM284.578 286.811C282.839 290.224 283.84 294.502 285.871 299.127L289.533 297.519C287.523 292.942 287.313 290.254 288.142 288.627L284.578 286.811Z" fill="#333333"/>
<path d="M331.77 288.325C348.195 274.156 364.98 269.182 372.665 275.038C368.523 266.064 352.161 249.795 323.658 255.271C295.155 260.746 284.675 287.389 287.742 300.062C294.688 301.485 315.344 302.495 331.77 288.325Z" fill="black"/>
<path d="M372.665 275.038L371.453 276.629C372.184 277.185 373.2 277.173 373.917 276.598C374.633 276.023 374.866 275.034 374.481 274.199L372.665 275.038ZM331.77 288.325L333.076 289.84L333.076 289.84L331.77 288.325ZM287.742 300.062L285.798 300.532L286.096 301.766L287.34 302.021L287.742 300.062ZM323.658 255.271L324.036 257.235L323.658 255.271ZM373.877 273.447C369.254 269.924 362.319 269.914 354.891 272.266C347.362 274.649 338.827 279.596 330.463 286.811L333.076 289.84C341.138 282.885 349.208 278.261 356.099 276.079C363.09 273.865 368.391 274.296 371.453 276.629L373.877 273.447ZM330.463 286.811C314.692 300.416 294.769 299.46 288.143 298.102L287.34 302.021C294.607 303.51 315.997 304.573 333.076 289.84L330.463 286.811ZM289.686 299.591C288.317 293.935 289.946 284.668 295.539 276.057C301.073 267.536 310.372 259.86 324.036 257.235L323.281 253.307C308.442 256.157 298.249 264.54 292.184 273.878C286.178 283.125 284.1 293.516 285.798 300.532L289.686 299.591ZM324.036 257.235C351.539 251.951 367.05 267.644 370.849 275.876L374.481 274.199C369.996 264.484 352.783 247.639 323.281 253.307L324.036 257.235Z" fill="#333333"/>
<path d="M338.303 302.833C350.458 288.887 340.142 279.241 344.501 276.68C346.54 275.01 346.689 275.419 348.876 274.159C343.368 269.203 332.599 274.448 336.748 280.94C338.414 283.547 339.526 293.107 338.303 302.833Z" fill="black"/>
<path d="M344.501 276.68L345.515 278.404L345.649 278.325L345.769 278.227L344.501 276.68ZM338.303 302.833L336.319 302.583L335.5 309.092L339.811 304.147L338.303 302.833ZM336.748 280.94L335.063 282.017L336.748 280.94ZM348.876 274.159L349.875 275.892L352.263 274.516L350.214 272.672L348.876 274.159ZM343.488 274.955C342.498 275.537 341.865 276.385 341.564 277.398C341.292 278.318 341.323 279.276 341.415 280.106C341.508 280.944 341.694 281.879 341.865 282.777C342.042 283.708 342.219 284.675 342.339 285.715C342.799 289.719 342.449 295.032 336.795 301.519L339.811 304.147C346.312 296.688 346.881 290.204 346.312 285.258C346.175 284.061 345.973 282.969 345.794 282.029C345.609 281.056 345.462 280.31 345.391 279.665C345.319 279.012 345.354 278.688 345.399 278.535C345.417 278.476 345.415 278.463 345.515 278.404L343.488 274.955ZM340.287 303.082C340.917 298.075 340.946 293.113 340.602 289.048C340.429 287.015 340.161 285.178 339.817 283.652C339.484 282.181 339.042 280.816 338.433 279.863L335.063 282.017C335.287 282.367 335.608 283.175 335.915 284.533C336.209 285.837 336.455 287.486 336.616 289.386C336.938 293.184 336.912 297.865 336.319 302.583L340.287 303.082ZM338.433 279.863C337.704 278.723 337.723 277.841 337.984 277.165C338.277 276.405 338.994 275.619 340.121 275.027C342.435 273.812 345.554 273.861 347.539 275.646L350.214 272.672C346.69 269.502 341.671 269.695 338.261 271.486C336.525 272.397 334.984 273.83 334.252 275.725C333.489 277.703 333.717 279.912 335.063 282.017L338.433 279.863ZM347.878 272.426C346.884 272.999 346.457 273.141 345.787 273.453C345.043 273.8 344.357 274.213 343.234 275.133L345.769 278.227C346.685 277.476 347.092 277.259 347.479 277.078C347.94 276.863 348.681 276.58 349.875 275.892L347.878 272.426Z" fill="#333333"/>
<path d="M348.203 295.117C359.436 280.342 347.418 278.374 351.479 275.274C353.305 273.295 353.52 273.746 355.561 272.219C349.173 266.956 338.977 273.401 344.212 280.457C346.314 283.29 347.959 284.154 348.203 295.117Z" fill="black"/>
<path d="M351.479 275.274L352.693 276.863L352.831 276.758L352.949 276.63L351.479 275.274ZM348.203 295.117L346.203 295.162L346.33 300.885L349.795 296.328L348.203 295.117ZM344.212 280.457L345.818 279.265L345.818 279.265L344.212 280.457ZM355.561 272.219L356.76 273.82L358.798 272.294L356.833 270.675L355.561 272.219ZM350.265 273.684C349.542 274.236 348.896 274.977 348.678 275.988C348.465 276.975 348.746 277.834 349.007 278.42C349.256 278.977 349.633 279.585 349.894 280.03C350.188 280.533 350.457 281.021 350.674 281.561C351.085 282.586 351.351 283.903 350.931 285.783C350.498 287.72 349.313 290.352 346.61 293.907L349.795 296.328C352.709 292.495 354.234 289.34 354.834 286.656C355.447 283.914 355.069 281.775 354.387 280.073C354.057 279.251 353.668 278.558 353.345 278.008C352.989 277.4 352.791 277.083 352.66 276.789C352.541 276.524 352.637 276.605 352.588 276.833C352.533 277.085 352.401 277.086 352.693 276.863L350.265 273.684ZM350.202 295.073C350.079 289.54 349.604 286.314 348.784 284.056C347.95 281.757 346.726 280.489 345.818 279.265L342.606 281.649C343.8 283.258 344.45 283.839 345.024 285.421C345.613 287.043 346.082 289.731 346.203 295.162L350.202 295.073ZM345.818 279.265C344.798 277.891 344.651 276.739 344.835 275.866C345.029 274.949 345.649 274.056 346.654 273.371C348.7 271.977 351.86 271.761 354.29 273.762L356.833 270.675C352.875 267.414 347.742 267.789 344.402 270.066C342.714 271.216 341.367 272.928 340.922 275.04C340.467 277.195 341.008 279.495 342.606 281.649L345.818 279.265ZM354.363 270.617C353.447 271.303 353.052 271.473 352.403 271.866C351.674 272.308 351.022 272.82 350.009 273.917L352.949 276.63C353.762 275.749 354.13 275.497 354.476 275.287C354.901 275.03 355.635 274.662 356.76 273.82L354.363 270.617Z" fill="#333333"/>
<path d="M80 504C80 504 266.039 504 416 504C433.673 504 448 489.673 448 472C448 454.327 433.673 440 416 440C398.327 440 384 454.327 384 472" stroke="#5B1600" stroke-width="16" stroke-linecap="round" stroke-linejoin="round"/>
</svg>
