<?xml version="1.0" encoding="UTF-8"?>
<svg width="1200pt" height="1200pt" version="1.1" viewBox="0 0 1200 1200" xmlns="http://www.w3.org/2000/svg">
 <g>
  <path d="m1012.2 688.2c-0.12109-55.441-45-100.32-100.32-100.2l-505.32 0.23828-48.238-194.16c-23.16-99 38.641-198.36 137.64-221.4 99-23.16 198.24 38.641 221.4 137.64l37.078 142.44c5.0391 21.48 26.52 34.922 48.121 29.879l26.762-6.2383c21.48-5.0391 34.922-26.52 29.879-48l-37.078-142.56c-36.602-156.72-193.92-254.52-350.64-218.04-156.72 36.598-254.52 193.92-218.04 350.64l42.238 169.8h-7.8008c-55.32 0.12109-100.2 45-100.2 100.32l0.12109 351.36c0.12109 55.441 45 100.32 100.32 100.32l624-0.35938c55.32 0 100.2-45 100.2-100.32zm-366.47 205.78 0.035156 85.094c0.011719 25.234-20.438 45.695-45.66 45.707-25.234 0.011718-45.695-20.426-45.707-45.66l-0.046876-85.105c-25.609-15.707-41.93-43.895-41.941-74.461-0.023437-35.398 20.82-67.609 56.734-82.57 8.7109-3.625 18.191-5.0508 27.625-5.0508 34.57 0 67.645 18.551 82.273 49.871 20.246 43.344 2.6523 90.059-33.312 112.18z"/>
  <path d="m600 778.88v-23.484l-0.023438 23.473c-10.859 0-21.059 4.2344-28.738 11.914-7.6797 7.6797-11.891 17.879-11.891 28.738 0 16.777 10.703 32.004 26.617 37.906l14.039 5.207 14.051-5.2188c15.898-5.9141 26.566-21.156 26.566-37.922 0-22.395-18.219-40.613-40.621-40.613z"/>
 </g>
</svg>
