<?xml version="1.0" encoding="UTF-8" standalone="no"?>
<!-- Created with Inkscape (http://www.inkscape.org/) -->

<svg
   width="250mm"
   height="221.67271mm"
   viewBox="0 0 250 221.67271"
   version="1.1"
   id="svg25095"
   inkscape:version="1.2.2 (b0a8486, 2022-12-01)"
   sodipodi:docname="map.svg"
   inkscape:export-filename="sinerider/Assets/Images/Icons/map.png"
   inkscape:export-xdpi="96"
   inkscape:export-ydpi="96"
   xmlns:inkscape="http://www.inkscape.org/namespaces/inkscape"
   xmlns:sodipodi="http://sodipodi.sourceforge.net/DTD/sodipodi-0.dtd"
   xmlns="http://www.w3.org/2000/svg"
   xmlns:svg="http://www.w3.org/2000/svg">
  <sodipodi:namedview
     id="namedview25097"
     pagecolor="#505050"
     bordercolor="#ffffff"
     borderopacity="1"
     inkscape:showpageshadow="0"
     inkscape:pageopacity="0"
     inkscape:pagecheckerboard="1"
     inkscape:deskcolor="#505050"
     inkscape:document-units="mm"
     showgrid="false"
     inkscape:zoom="0.54163861"
     inkscape:cx="-3.692499"
     inkscape:cy="561.25984"
     inkscape:window-width="1600"
     inkscape:window-height="815"
     inkscape:window-x="0"
     inkscape:window-y="0"
     inkscape:window-maximized="1"
     inkscape:current-layer="layer1" />
  <defs
     id="defs25092">
    <inkscape:path-effect
       effect="fillet_chamfer"
       id="path-effect17837"
       is_visible="true"
       lpeversion="1"
       nodesatellites_param="F,0,0,1,0,2.5,0,1 @ F,0,0,1,0,2.5,0,1 @ F,0,0,1,0,2.5,0,1 @ F,0,0,1,0,0,0,1 @ F,0,0,1,0,0,0,1"
       unit="mm"
       method="auto"
       mode="F"
       radius="2.5"
       chamfer_steps="1"
       flexible="false"
       use_knot_distance="true"
       apply_no_radius="true"
       apply_with_radius="true"
       only_selected="false"
       hide_knots="false" />
    <inkscape:path-effect
       effect="fillet_chamfer"
       id="path-effect17835"
       is_visible="true"
       lpeversion="1"
       nodesatellites_param="F,0,0,1,0,2.5,0,1 @ F,0,0,1,0,0,0,1 @ F,0,0,1,0,0,0,1 @ F,0,0,1,0,0,0,1 @ F,0,0,1,0,2.5,0,1 @ F,0,0,1,0,2.5,0,1"
       unit="mm"
       method="auto"
       mode="F"
       radius="2.5"
       chamfer_steps="1"
       flexible="false"
       use_knot_distance="true"
       apply_no_radius="true"
       apply_with_radius="true"
       only_selected="false"
       hide_knots="false" />
    <inkscape:path-effect
       effect="fillet_chamfer"
       id="path-effect17829"
       is_visible="true"
       lpeversion="1"
       nodesatellites_param="F,0,0,1,0,5,0,1 @ F,0,0,1,0,5,0,1 @ F,0,0,1,0,5,0,1"
       unit="mm"
       method="auto"
       mode="F"
       radius="5"
       chamfer_steps="1"
       flexible="false"
       use_knot_distance="true"
       apply_no_radius="true"
       apply_with_radius="true"
       only_selected="false"
       hide_knots="false" />
    <inkscape:path-effect
       effect="fillet_chamfer"
       id="path-effect15647"
       is_visible="true"
       lpeversion="1"
       nodesatellites_param="F,0,0,1,0,5,0,1 @ F,0,0,1,0,5,0,1 @ F,0,0,1,0,5,0,1"
       unit="mm"
       method="auto"
       mode="F"
       radius="5"
       chamfer_steps="1"
       flexible="false"
       use_knot_distance="true"
       apply_no_radius="true"
       apply_with_radius="true"
       only_selected="false"
       hide_knots="false" />
    <inkscape:path-effect
       effect="fillet_chamfer"
       id="path-effect15645"
       is_visible="true"
       lpeversion="1"
       nodesatellites_param="F,0,0,1,0,5,0,1 @ F,0,0,1,0,5,0,1 @ F,0,0,1,0,5,0,1 @ F,0,0,1,0,5,0,1"
       unit="mm"
       method="auto"
       mode="F"
       radius="5"
       chamfer_steps="1"
       flexible="false"
       use_knot_distance="true"
       apply_no_radius="true"
       apply_with_radius="true"
       only_selected="false"
       hide_knots="false" />
    <inkscape:path-effect
       effect="fillet_chamfer"
       id="path-effect15576"
       is_visible="true"
       lpeversion="1"
       nodesatellites_param="F,0,0,1,0,5,0,1 @ F,0,0,1,0,5,0,1 @ F,0,0,1,0,5,0,1"
       unit="mm"
       method="auto"
       mode="F"
       radius="5"
       chamfer_steps="1"
       flexible="false"
       use_knot_distance="true"
       apply_no_radius="true"
       apply_with_radius="true"
       only_selected="false"
       hide_knots="false" />
    <inkscape:path-effect
       effect="fillet_chamfer"
       id="path-effect12107"
       is_visible="true"
       lpeversion="1"
       nodesatellites_param="F,0,0,1,0,5,0,1 @ F,0,0,1,0,5,0,1 @ F,0,0,1,0,5,0,1 @ F,0,0,1,0,5,0,1 @ F,0,0,1,0,5,0,1 @ F,0,0,1,0,5,0,1 @ F,0,0,1,0,5,0,1 @ F,0,0,1,0,5,0,1 @ F,0,0,1,0,5,0,1"
       unit="mm"
       method="auto"
       mode="F"
       radius="5"
       chamfer_steps="1"
       flexible="false"
       use_knot_distance="true"
       apply_no_radius="true"
       apply_with_radius="true"
       only_selected="false"
       hide_knots="false" />
  </defs>
  <g
     inkscape:groupmode="layer"
     id="layer4"
     inkscape:label="Layer 2"
     transform="translate(0,-3.327274)">
    <path
       style="fill:#bfbfbf;stroke-width:20.3191;stroke-linecap:round"
       d="m 2.2360613,195.52814 33.0278777,-66.056 a 2.4999953,2.4999953 179.99996 0 1 4.472129,0 l 8.027864,16.05572 a 2.1803476,2.1803476 176.9955 0 0 3.991685,-0.20951 L 85.744383,54.681646 a 2.1803476,2.1803476 176.9955 0 1 3.991685,-0.20951 l 8.027864,16.055728 a 2.0710678,2.0710678 175.93495 0 0 3.817208,-0.27128 L 123.41886,4.7434165 a 2.0710678,2.0710678 175.93495 0 1 3.81721,-0.2712805 l 45.52786,91.055728 a 2.5,2.5 0 0 0 4.47214,0 l 8.02786,-16.055728 a 2.4999972,2.4999972 2.5668463e-5 0 1 4.47213,2e-6 L 247.76394,195.52814 A 3.090173,3.090173 121.7175 0 1 245,200.00028 H 5 a 3.0901751,3.0901751 58.282483 0 1 -2.7639387,-4.47214 z"
       id="path12105"
       sodipodi:nodetypes="cccccccccc"
       inkscape:path-effect="#path-effect12107"
       inkscape:original-d="M 0,200.00028 37.5,125 50,150 87.5,50 100,75 125,0 175,100 187.5,75 250,200.00028 Z" />
    <path
       style="mix-blend-mode:multiply;fill:#7f7f7f;fill-opacity:1;stroke-width:20;stroke-linecap:round"
       d="m 36.678005,129.93197 -10.85601,65.13606 A 5.9023021,5.9023021 139.73116 0 1 20,200 H 5 a 3.0901699,3.0901699 58.282526 0 1 -2.763932,-4.47214 l 33.027864,-66.05572 a 0.75183814,0.75183814 18.013687 0 1 1.414073,0.45983 z"
       id="path12109"
       sodipodi:nodetypes="cccc"
       inkscape:path-effect="#path-effect15576"
       inkscape:original-d="M 37.5,125 25,200 H 0 Z" />
    <path
       style="mix-blend-mode:multiply;fill:#7f7f7f;fill-opacity:1;stroke-width:20;stroke-linecap:round"
       d="M 87.084773,54.982729 75.415227,195.01727 a 1.40208,1.40208 169.0993 0 1 -2.651295,0.51059 L 52.236068,154.47214 a 11.466062,11.466062 86.995497 0 1 -0.480451,-9.15379 L 85.744383,54.681646 a 0.6934695,0.6934695 12.659843 0 1 1.34039,0.301083 z"
       id="path15641"
       sodipodi:nodetypes="cccc"
       inkscape:path-effect="#path-effect15647"
       inkscape:original-d="M 87.5,50 75,200 50,150 Z" />
    <path
       style="mix-blend-mode:multiply;fill:#7f7f7f;fill-opacity:1;stroke-width:20;stroke-linecap:round"
       d="M 124.37983,4.9613894 100.62017,195.03861 A 5.6639111,5.6639111 138.56251 0 1 95,200 H 80 a 4.6069051,4.6069051 47.343119 0 1 -4.591504,-4.98329 l 4.598246,-56.09453 a 41.545695,41.545695 101.54875 0 1 1.987673,-9.72736 L 123.42082,4.7440699 a 0.49405361,0.49405361 12.768136 0 1 0.95901,0.2173195 z"
       id="path15643"
       sodipodi:nodetypes="ccccc"
       inkscape:path-effect="#path-effect15645"
       inkscape:original-d="M 125,0 100,200 H 75 l 5.415238,-66.06111 z" />
    <path
       style="mix-blend-mode:multiply;fill:#7f7f7f;fill-opacity:1;stroke-width:20;stroke-linecap:round"
       d="M 175.49752,195.02481 187.00248,79.975186 a 1.0017512,1.0017512 17.03982 0 0 -1.87822,-0.575659 L 122.37574,195.60047 A 2.9824291,2.9824291 59.184523 0 0 125,200 h 45 a 5.5249378,5.5249378 137.8553 0 0 5.49752,-4.97519 z"
       id="path17101"
       sodipodi:nodetypes="cccc"
       inkscape:path-effect="#path-effect17829"
       inkscape:original-d="M 175,200 187.5,75 120,200 Z" />
    <path
       style="fill:#4abf40;fill-opacity:1;stroke-width:20;stroke-linecap:round"
       d="M 247.5,225 H 175 v -25 l -50,-12.5 50.36724,-11.92406 a 8.5999954,8.5999954 2.8899099 0 1 4.79515,0.24206 l 67.47522,23.364 A 3.5112797,3.5112797 54.549472 0 1 250,202.5 v 20 a 2.5,2.5 135 0 1 -2.5,2.5 z"
       id="path17833"
       sodipodi:nodetypes="ccccccc"
       inkscape:path-effect="#path-effect17835"
       inkscape:original-d="M 250,225 H 175 V 200 L 125,187.5 177.8,175 250,200 Z" />
    <path
       style="fill:#378e2f;fill-opacity:1;stroke-width:20;stroke-linecap:round"
       d="m 0,222.5 v -20 a 3.4685647,3.4685647 125.78253 0 1 2.3717082,-3.29057 L 72.628292,175.79057 a 8.5851446,8.5851446 177.80065 0 1 4.797064,-0.18423 L 175,200 250,225 H 2.5 A 2.5,2.5 45 0 1 0,222.5 Z"
       id="path17831"
       sodipodi:nodetypes="cccccc"
       inkscape:path-effect="#path-effect17837"
       inkscape:original-d="m 0,225 v -25 l 75,-25 100,25 75,25 z" />
  </g>
</svg>
